<svg width="111" height="103" viewBox="0 0 111 103" fill="none" xmlns="http://www.w3.org/2000/svg">
<mask id="path-1-inside-1_5_50" fill="white">
<path d="M0 0H111V98C111 100.761 108.761 103 106 103H5C2.23857 103 0 100.761 0 98V0Z"/>
</mask>
<path d="M0 0H111V98C111 100.761 108.761 103 106 103H5C2.23857 103 0 100.761 0 98V0Z" fill="#131313"/>
<path d="M0 0H111V98C111 100.761 108.761 103 106 103H5C2.23857 103 0 100.761 0 98V0Z" fill="url(#paint0_radial_5_50)" fill-opacity="0.27"/>
<path d="M0 0H111V98C111 100.761 108.761 103 106 103H5C2.23857 103 0 100.761 0 98V0Z" fill="url(#paint1_radial_5_50)" fill-opacity="0.17"/>
<path d="M43.2386 40H41.2704V35.3101C41.2704 34.5208 40.9014 34.1261 40.1633 34.1261C39.8455 34.1261 39.5483 34.2133 39.2715 34.3875C39.0049 34.5618 38.7897 34.7617 38.6257 34.9872V40H36.6575V35.3101C36.6575 34.5208 36.2884 34.1261 35.5503 34.1261C35.2428 34.1261 34.9506 34.2133 34.6739 34.3875C34.3971 34.5618 34.1767 34.7668 34.0127 35.0026V40H32.0598V32.5731H34.0127V33.5418C34.1972 33.2753 34.5201 33.019 34.9814 32.773C35.4427 32.5167 35.9296 32.3886 36.4422 32.3886C37.5185 32.3886 38.2054 32.8396 38.5026 33.7417C38.7384 33.3727 39.087 33.0549 39.5483 32.7884C40.0198 32.5218 40.5221 32.3886 41.0552 32.3886C41.7522 32.3886 42.2904 32.5782 42.6697 32.9575C43.049 33.3265 43.2386 33.8852 43.2386 34.6336V40ZM51.566 40H49.6132V39.2312C49.0802 39.8667 48.296 40.1845 47.2606 40.1845C46.5943 40.1845 45.9946 39.9692 45.4615 39.5387C44.9387 39.0979 44.6773 38.4931 44.6773 37.7243C44.6773 36.9247 44.9336 36.325 45.4462 35.9252C45.969 35.5254 46.5738 35.3255 47.2606 35.3255C48.3165 35.3255 49.1007 35.6279 49.6132 36.2327V35.2332C49.6132 34.854 49.4646 34.5515 49.1673 34.326C48.87 34.1005 48.4753 33.9877 47.9833 33.9877C47.1735 33.9877 46.4508 34.2799 45.8152 34.8642L45.0771 33.5572C45.9587 32.7781 47.0402 32.3886 48.3216 32.3886C49.2749 32.3886 50.054 32.609 50.6588 33.0498C51.2636 33.4906 51.566 34.2081 51.566 35.2025V40ZM48.0448 38.8621C48.7726 38.8621 49.2954 38.6469 49.6132 38.2163V37.2937C49.2954 36.8632 48.7726 36.6479 48.0448 36.6479C47.645 36.6479 47.3118 36.7504 47.0453 36.9554C46.7788 37.1502 46.6455 37.4219 46.6455 37.7704C46.6455 38.1087 46.7788 38.3752 47.0453 38.57C47.3118 38.7647 47.645 38.8621 48.0448 38.8621ZM55.4559 40H53.503V32.5731H55.4559V33.5879C55.7326 33.2394 56.0863 32.9524 56.5168 32.7269C56.9474 32.5013 57.3831 32.3886 57.8239 32.3886V34.2953C57.6906 34.2645 57.5112 34.2491 57.2857 34.2491C56.9576 34.2491 56.6091 34.3312 56.2401 34.4952C55.871 34.6592 55.6096 34.8591 55.4559 35.0949V40ZM66.3018 40H63.8569L61.8887 37.1399L60.9968 38.0933V40H59.044V29.7438H60.9968V35.8791L63.8108 32.5731H66.2095L63.2726 35.9406L66.3018 40ZM70.6733 40.1845C69.5252 40.1845 68.577 39.8257 67.8286 39.1082C67.0803 38.3906 66.7061 37.4475 66.7061 36.2789C66.7061 35.182 67.0649 34.2594 67.7825 33.5111C68.5103 32.7627 69.4329 32.3886 70.5503 32.3886C71.6574 32.3886 72.5544 32.7679 73.2412 33.5264C73.928 34.2748 74.2714 35.2589 74.2714 36.4788V36.9093H68.7512C68.8127 37.4014 69.0331 37.8114 69.4124 38.1394C69.7917 38.4675 70.2838 38.6315 70.8886 38.6315C71.2166 38.6315 71.5703 38.5648 71.9496 38.4316C72.3391 38.2983 72.6466 38.1189 72.8722 37.8934L73.7332 39.1543C72.9849 39.8411 71.9649 40.1845 70.6733 40.1845ZM72.3801 35.5869C72.3494 35.1666 72.1802 34.7873 71.8727 34.449C71.5754 34.1108 71.1346 33.9416 70.5503 33.9416C69.9967 33.9416 69.5662 34.1108 69.2587 34.449C68.9511 34.7771 68.7717 35.1564 68.7205 35.5869H72.3801ZM78.173 40.1845C77.4862 40.1845 76.9634 40.0103 76.6046 39.6617C76.2458 39.3132 76.0664 38.8109 76.0664 38.1548V34.2799H74.8363V32.5731H76.0664V30.5434H78.0346V32.5731H79.5415V34.2799H78.0346V37.632C78.0346 37.8678 78.0961 38.0625 78.2191 38.2163C78.3422 38.3701 78.5062 38.447 78.7112 38.447C79.0187 38.447 79.2443 38.3752 79.3878 38.2317L79.8029 39.7078C79.4441 40.0256 78.9008 40.1845 78.173 40.1845Z" fill="white"/>
<path d="M30.714 73V47.704H37.548C39.0893 47.704 40.2 48.044 40.88 48.724C41.5827 49.404 41.934 50.5713 41.934 52.226V55.592C41.934 56.544 41.7073 57.3373 41.254 57.972C40.8233 58.584 40.336 58.9693 39.792 59.128C41.4693 59.604 42.308 60.93 42.308 63.106V67.322C42.308 69.294 41.968 70.7333 41.288 71.64C40.608 72.5467 39.5653 73 38.16 73H30.714ZM36.324 61.678H35.236V68.988H36.494C36.9247 68.988 37.2193 68.886 37.378 68.682C37.5593 68.4553 37.65 68.002 37.65 67.322V63.208C37.65 62.664 37.548 62.2787 37.344 62.052C37.1627 61.8027 36.8227 61.678 36.324 61.678ZM36.324 51.58H35.236V57.598H36.256C36.664 57.598 36.97 57.496 37.174 57.292C37.378 57.0653 37.48 56.6687 37.48 56.102V52.94C37.48 52.0333 37.0947 51.58 36.324 51.58ZM55.2612 53.824V67.22C55.2612 69.1013 54.7852 70.5973 53.8332 71.708C52.8812 72.8187 51.5665 73.374 49.8892 73.374H48.8692C47.0785 73.374 45.7185 72.8527 44.7892 71.81C43.8599 70.7447 43.3952 69.2147 43.3952 67.22V53.858C43.3952 49.5513 45.2085 47.398 48.8352 47.398H49.8552C53.4592 47.398 55.2612 49.54 55.2612 53.824ZM50.5352 67.356V53.484C50.5352 52.3733 50.1385 51.818 49.3452 51.818C48.5292 51.818 48.1212 52.3733 48.1212 53.484V67.356C48.1212 68.3533 48.5405 68.852 49.3792 68.852C50.1499 68.852 50.5352 68.3533 50.5352 67.356ZM61.5772 47.398H62.4952C64.2406 47.398 65.4872 47.7947 66.2352 48.588C66.9832 49.3813 67.3572 50.6393 67.3572 52.362V55.762H63.0052V52.6C63.0052 51.716 62.6766 51.274 62.0192 51.274C61.3619 51.274 61.0332 51.7273 61.0332 52.634V53.212C61.0332 54.3453 61.4979 55.4333 62.4272 56.476L65.0112 59.366C66.0992 60.59 66.8246 61.6893 67.1872 62.664C67.5726 63.616 67.7652 64.6813 67.7652 65.86V67.05C67.7652 69.022 67.3006 70.5633 66.3712 71.674C65.4646 72.762 64.0932 73.306 62.2572 73.306H61.3732C57.9279 73.306 56.2052 71.5607 56.2052 68.07V63.514H60.6592V67.56C60.6592 68.58 61.0446 69.09 61.8152 69.09C62.5632 69.09 62.9372 68.478 62.9372 67.254V66.778C62.9372 65.826 62.8466 65.112 62.6652 64.636C62.5066 64.1373 62.1099 63.5367 61.4752 62.834L58.8572 59.944C57.9506 58.9693 57.3159 57.9833 56.9532 56.986C56.6132 55.9887 56.4432 54.8327 56.4432 53.518V52.43C56.4432 50.8207 56.8966 49.5853 57.8032 48.724C58.7099 47.84 59.9679 47.398 61.5772 47.398ZM73.8624 47.398H74.7804C76.5257 47.398 77.7724 47.7947 78.5204 48.588C79.2684 49.3813 79.6424 50.6393 79.6424 52.362V55.762H75.2904V52.6C75.2904 51.716 74.9617 51.274 74.3044 51.274C73.6471 51.274 73.3184 51.7273 73.3184 52.634V53.212C73.3184 54.3453 73.7831 55.4333 74.7124 56.476L77.2964 59.366C78.3844 60.59 79.1097 61.6893 79.4724 62.664C79.8577 63.616 80.0504 64.6813 80.0504 65.86V67.05C80.0504 69.022 79.5857 70.5633 78.6564 71.674C77.7497 72.762 76.3784 73.306 74.5424 73.306H73.6584C70.2131 73.306 68.4904 71.5607 68.4904 68.07V63.514H72.9444V67.56C72.9444 68.58 73.3297 69.09 74.1004 69.09C74.8484 69.09 75.2224 68.478 75.2224 67.254V66.778C75.2224 65.826 75.1317 65.112 74.9504 64.636C74.7917 64.1373 74.3951 63.5367 73.7604 62.834L71.1424 59.944C70.2357 58.9693 69.6011 57.9833 69.2384 56.986C68.8984 55.9887 68.7284 54.8327 68.7284 53.518V52.43C68.7284 50.8207 69.1817 49.5853 70.0884 48.724C70.9951 47.84 72.2531 47.398 73.8624 47.398Z" fill="#C9F32F"/>
<path d="M0 0H111H0ZM112 98C112 101.314 109.314 104 106 104H5C1.68629 104 -1 101.314 -1 98H1C1 100.209 2.79086 102 5 102H106C108.209 102 110 100.209 110 98H112ZM5 104C1.68629 104 -1 101.314 -1 98V0H1V98C1 100.209 2.79086 102 5 102V104ZM112 0V98C112 101.314 109.314 104 106 104V102C108.209 102 110 100.209 110 98V0H112Z" fill="#5B5B5F" mask="url(#path-1-inside-1_5_50)"/>
<defs>
<radialGradient id="paint0_radial_5_50" cx="0" cy="0" r="1" gradientUnits="userSpaceOnUse" gradientTransform="translate(55.9826 116.138) rotate(90) scale(96.6939 162.965)">
<stop stop-color="#F8F8F8"/>
<stop offset="1" stop-color="#6F6F6F" stop-opacity="0"/>
</radialGradient>
<radialGradient id="paint1_radial_5_50" cx="0" cy="0" r="1" gradientUnits="userSpaceOnUse" gradientTransform="translate(117.274 -6.44759e-06) rotate(9.72315) scale(96.4595 152.237)">
<stop stop-color="#858585"/>
<stop offset="1" stop-color="#6F6F6F" stop-opacity="0"/>
</radialGradient>
</defs>
</svg>
